<svg width="48" height="48" viewBox="0 0 48 48" fill="none" xmlns="http://www.w3.org/2000/svg">
<path d="M21.9995 40C18.4876 40.0106 15.1 38.701 12.5085 36.3308C9.91703 33.9607 8.311 30.7031 8.00894 27.2042C7.70688 23.7053 8.73085 20.2207 10.8778 17.4415C13.0247 14.6622 16.1377 12.7914 19.5995 12.2C30.9995 10 33.9995 8.96 37.9995 4C39.9995 8 41.9995 12.36 41.9995 20C41.9995 31 32.4395 40 21.9995 40Z" stroke="#FFBFA6" stroke-width="3" stroke-linecap="round" stroke-linejoin="round"/>
<path d="M4 42C4 36 7.7 31.28 14.16 30C19 29.04 24 26 26 24" stroke="#FFBFA6" stroke-width="3" stroke-linecap="round" stroke-linejoin="round"/>
</svg>
