<svg width="145" height="35" viewBox="0 0 145 35" fill="none" xmlns="http://www.w3.org/2000/svg">
  <path d="M31.0638 21.5361L0.697216 34.3297C0.274649 34.5046 -0.133347 34.082 0.0415081 33.674L4.12147 24.1007C4.19433 23.9258 4.35461 23.8093 4.54404 23.7947L31.0638 21.5507" fill="white"/>
  <path d="M31.6025 19.8752L15.2098 0.859707C14.933 0.539138 15.1515 0.0291426 15.5887 0.0291426C17.6141 0.0145713 21.8543 0 23.0638 0C23.2678 0 23.4426 0.11657 23.53 0.305997L31.6025 19.8752Z" fill="white"/>
  <path d="M30.7726 20.4286L8.53677 15.2412C8.23078 15.1684 8.07049 14.8332 8.18706 14.5564L10.5768 8.93184C10.6933 8.65498 11.043 8.53841 11.3053 8.6987L30.7726 20.4286Z" fill="white"/>
  <path d="M37.4458 33.6308L32.4479 21.8135L32.2876 21.9446L25.9928 28.3268C25.7451 28.5746 25.8179 28.9826 26.1385 29.1283C28.7468 30.3814 34.313 33.0771 36.7756 34.2574C37.1981 34.4614 37.6353 34.0388 37.4604 33.6017L37.4458 33.6308Z" fill="white"/>
  <path d="M58.2539 14.1196H50.0794C49.9774 14.1196 49.8754 14.1779 49.8317 14.2799L48.2726 18.0976C48.2289 18.1996 48.1414 18.2578 48.0248 18.2578H45.4894C45.3 18.2578 45.1834 18.0684 45.2563 17.8936L52.746 0.160284C52.7897 0.0582852 52.8771 0 52.9791 0H55.3251C55.4271 0 55.5291 0.0582852 55.5582 0.160284L63.0624 17.8936C63.1353 18.0684 63.0041 18.2578 62.8293 18.2578H60.2939C60.1919 18.2578 60.0899 18.1996 60.0462 18.0976L58.487 14.2799C58.4433 14.1779 58.3559 14.1196 58.2393 14.1196H58.2539ZM57.0008 11.5842C57.1902 11.5842 57.3068 11.3948 57.2485 11.2199L55.0482 5.87223C54.6548 4.88138 54.2176 3.49711 54.1885 3.49711H54.1594C54.1594 3.49711 53.6931 4.88138 53.2997 5.87223L51.0994 11.2199C51.0265 11.3948 51.1577 11.5842 51.3471 11.5842H57.0153H57.0008Z" fill="white"/>
  <path d="M84.9197 0.262283V17.9956C84.9197 18.1413 84.8031 18.2578 84.6574 18.2578H82.3405C82.1948 18.2578 82.0783 18.1413 82.0783 17.9956V11.2928C82.0783 7.98507 82.2385 4.85224 82.2094 4.85224H82.1803C82.1803 4.85224 81.0291 6.77565 80.5628 7.62079L77.0949 13.6242C77.0512 13.7116 76.9637 13.7553 76.8763 13.7553H75.6669C75.5795 13.7553 75.492 13.7116 75.4483 13.6242L71.9804 7.62079C71.5141 6.79022 70.4212 4.85224 70.3921 4.85224H70.3629C70.3629 4.85224 70.4649 7.98507 70.4649 11.2928V17.9956C70.4649 18.1413 70.3484 18.2578 70.2027 18.2578H67.8858C67.7401 18.2578 67.6235 18.1413 67.6235 17.9956V0.262283C67.6235 0.11657 67.7401 0 67.8858 0H70.1881C70.2755 0 70.3629 0.0437139 70.4067 0.131142L74.472 6.99422C75.9875 9.50049 76.2497 10.1271 76.2789 10.1271H76.308C76.308 10.1271 76.5995 9.50049 78.0857 6.99422L82.1365 0.131142C82.1803 0.0582852 82.2677 0 82.3551 0H84.6574C84.8031 0 84.9197 0.11657 84.9197 0.262283Z" fill="white"/>
  <path d="M97.9313 0C102.259 0 104.867 2.24398 104.867 5.97423C104.867 9.70448 102.259 11.9485 97.9313 11.9485H95.0316C94.8859 11.9485 94.7693 12.065 94.7693 12.2107V17.9956C94.7693 18.1413 94.6527 18.2578 94.507 18.2578H92.1319C91.9862 18.2578 91.8696 18.1413 91.8696 17.9956V0.262283C91.8696 0.11657 91.9862 0 92.1319 0H97.9167H97.9313ZM97.873 9.2382C100.423 9.2382 101.866 8.01421 101.866 5.97423C101.866 3.93425 100.35 2.71026 97.873 2.71026H95.0316C94.8859 2.71026 94.7693 2.82683 94.7693 2.97254V8.97592C94.7693 9.12163 94.8859 9.2382 95.0316 9.2382H97.873Z" fill="white"/>
  <path d="M123.504 0.407996L116.816 9.52963C116.816 9.52963 116.772 9.63163 116.772 9.68991V18.0101C116.772 18.1558 116.655 18.2724 116.51 18.2724H114.164C114.018 18.2724 113.901 18.1558 113.901 18.0101V9.68991C113.901 9.68991 113.887 9.57334 113.858 9.52963L107.169 0.407996C107.038 0.233141 107.169 0 107.373 0H109.982C110.069 0 110.142 0.0437139 110.186 0.101999L114.251 5.60995C114.746 6.26566 115.3 7.02337 115.315 7.02337H115.344C115.344 7.02337 115.912 6.26566 116.393 5.60995L120.458 0.101999C120.458 0.101999 120.589 0 120.662 0H123.271C123.489 0 123.606 0.247712 123.475 0.407996H123.504Z" fill="white"/>
  <path d="M137.522 18.2578C137.434 18.2578 137.347 18.2141 137.303 18.1267L133.515 11.7008C133.325 11.7299 133.15 11.7299 132.946 11.7299H130.134C129.988 11.7299 129.872 11.8465 129.872 11.9922V17.9956C129.872 18.1413 129.755 18.2578 129.61 18.2578H127.234C127.089 18.2578 126.972 18.1413 126.972 17.9956V0.262283C126.972 0.11657 127.089 0 127.234 0H132.946C137.332 0 139.97 2.31684 139.97 5.91595C139.97 8.36392 138.746 10.1708 136.604 11.0742C136.458 11.1325 136.4 11.3073 136.473 11.453L140.392 17.8644C140.494 18.0393 140.378 18.2578 140.174 18.2578H137.522ZM133.282 9.17992C135.759 9.17992 136.954 7.72279 136.954 5.91595C136.954 4.10911 135.642 2.71026 133.282 2.71026H130.12C129.974 2.71026 129.857 2.82683 129.857 2.97254V8.91763C129.857 9.06335 129.974 9.17992 130.12 9.17992H133.282Z" fill="white"/>
  <path d="M51.4053 27.1898C51.4053 27.1898 51.3179 27.321 51.2742 27.3501C51.2305 27.3793 51.1722 27.4084 51.0993 27.4084C51.0265 27.4084 50.939 27.3793 50.837 27.3064C50.735 27.2335 50.6185 27.1607 50.4727 27.0733C50.327 26.9858 50.1522 26.913 49.9482 26.8401C49.7442 26.7673 49.4965 26.7381 49.2196 26.7381C48.9573 26.7381 48.7096 26.7673 48.5202 26.8401C48.3162 26.913 48.1559 27.0004 48.0102 27.1316C47.8791 27.2481 47.7771 27.3938 47.7042 27.5541C47.6313 27.7144 47.6022 27.8893 47.6022 28.0933C47.6022 28.341 47.6605 28.545 47.7916 28.7053C47.9228 28.8655 48.0831 29.0112 48.2871 29.1132C48.491 29.2298 48.7242 29.3318 48.9865 29.4192C49.2488 29.5067 49.511 29.5941 49.7879 29.6815C50.0647 29.769 50.327 29.871 50.5893 30.0021C50.8516 30.1187 51.0847 30.2644 51.2887 30.4538C51.4927 30.6287 51.653 30.8618 51.7842 31.1241C51.9153 31.3864 51.9736 31.7069 51.9736 32.0858C51.9736 32.4938 51.9007 32.8726 51.7696 33.2224C51.6239 33.5721 51.4345 33.8781 51.1722 34.1403C50.9099 34.4026 50.5893 34.6066 50.1959 34.7669C49.8025 34.9272 49.3799 35.0001 48.8845 35.0001C48.593 35.0001 48.3016 34.9709 48.0248 34.9126C47.7479 34.8543 47.4856 34.7815 47.2379 34.6649C46.9902 34.5629 46.7571 34.4318 46.5531 34.2861C46.3345 34.1403 46.1451 33.9801 45.9702 33.7906L46.3636 33.1349C46.3636 33.1349 46.4511 33.0475 46.4948 33.0038C46.5531 32.9746 46.6114 32.9455 46.6696 32.9455C46.7571 32.9455 46.8591 32.9892 46.9756 33.0912C47.0922 33.1786 47.2379 33.2806 47.4128 33.3972C47.5876 33.5138 47.7916 33.6158 48.0248 33.7032C48.2579 33.7906 48.5639 33.8489 48.899 33.8489C49.1759 33.8489 49.4236 33.8052 49.6568 33.7323C49.8753 33.6595 50.0647 33.5575 50.2105 33.4118C50.3562 33.2661 50.4727 33.1058 50.5602 32.9164C50.6476 32.7269 50.6767 32.5084 50.6767 32.2606C50.6767 31.9984 50.6185 31.7798 50.4873 31.6049C50.3707 31.4301 50.1959 31.2989 49.9919 31.1824C49.7879 31.0658 49.5548 30.9638 49.2925 30.8909C49.0302 30.8035 48.7679 30.7307 48.491 30.6432C48.2142 30.5558 47.9519 30.4538 47.6896 30.3372C47.4273 30.2207 47.1942 30.075 46.9902 29.8855C46.7862 29.6961 46.6259 29.463 46.4948 29.1861C46.3782 28.9092 46.3054 28.5595 46.3054 28.1515C46.3054 27.831 46.3636 27.5104 46.4948 27.2044C46.6259 26.8984 46.8008 26.6216 47.0485 26.3884C47.2962 26.1553 47.5876 25.9658 47.9519 25.8201C48.3016 25.6744 48.7096 25.6016 49.1759 25.6016C49.6859 25.6016 50.1668 25.689 50.5893 25.8493C51.0119 26.0096 51.3907 26.2427 51.7113 26.5487L51.3762 27.1898H51.4053Z" fill="white"/>
  <path d="M62.6399 30.2789C62.6399 30.9637 62.5233 31.5903 62.3047 32.1586C62.0861 32.7269 61.7801 33.2223 61.3721 33.6303C60.9787 34.0383 60.4979 34.3588 59.9442 34.592C59.3905 34.8251 58.7639 34.9417 58.0936 34.9417C57.4233 34.9417 56.7968 34.8251 56.2431 34.592C55.6893 34.3588 55.2085 34.0383 54.8151 33.6303C54.4216 33.2223 54.1156 32.7269 53.8825 32.1586C53.6639 31.5903 53.5474 30.9637 53.5474 30.2789C53.5474 29.594 53.6639 28.9675 53.8825 28.3992C54.1011 27.8309 54.4071 27.3355 54.8151 26.9129C55.2231 26.4903 55.6893 26.1698 56.2431 25.9366C56.7968 25.7035 57.4233 25.5869 58.0936 25.5869C58.7639 25.5869 59.3905 25.7035 59.9442 25.9366C60.4979 26.1698 60.9787 26.4903 61.3721 26.9129C61.7656 27.3209 62.0861 27.8163 62.3047 28.3992C62.5233 28.982 62.6399 29.594 62.6399 30.2789ZM61.2556 30.2789C61.2556 29.7397 61.1827 29.2443 61.037 28.8072C60.8913 28.37 60.6727 28.0058 60.3959 27.6998C60.119 27.3938 59.7839 27.1606 59.405 27.0003C59.0116 26.84 58.589 26.7526 58.1082 26.7526C57.6273 26.7526 57.1902 26.84 56.8113 27.0003C56.4179 27.1606 56.0828 27.3938 55.8205 27.6998C55.5582 28.0058 55.3396 28.37 55.1793 28.8072C55.0336 29.2443 54.9608 29.7252 54.9608 30.2789C54.9608 30.8326 55.0336 31.3134 55.1793 31.7506C55.3251 32.1877 55.5436 32.552 55.8205 32.8434C56.0973 33.1348 56.4325 33.3826 56.8113 33.5283C57.2048 33.6886 57.6419 33.7614 58.1082 33.7614C58.5745 33.7614 59.0262 33.6886 59.405 33.5283C59.7839 33.368 60.119 33.1348 60.3959 32.8434C60.6727 32.552 60.8767 32.1731 61.037 31.7506C61.1827 31.3134 61.2556 30.8326 61.2556 30.2789Z" fill="white"/>
  <path d="M70.0713 33.7183V34.8549H64.8257V25.7041H66.1808V33.7183H70.0568H70.0713Z" fill="white"/>
  <path d="M79.8779 34.8549H78.8288C78.7122 34.8549 78.6102 34.8257 78.5374 34.7674C78.4645 34.7092 78.4062 34.6363 78.3771 34.5343L77.5611 32.4069H73.5248L72.7089 34.5343C72.6797 34.6217 72.6214 34.6946 72.5486 34.7529C72.4611 34.8112 72.3737 34.8549 72.2571 34.8549H71.208L74.8508 25.7041H76.2205L79.8634 34.8549H79.8779ZM77.1968 31.4452L75.8417 27.8898C75.7397 27.6421 75.6523 27.3361 75.5503 26.9718C75.5065 27.1467 75.4628 27.3215 75.4045 27.4818C75.3608 27.6421 75.3025 27.7732 75.2588 27.9044L73.9037 31.4452H77.1968Z" fill="white"/>
  <path d="M88.4457 34.8548H87.2363C86.9885 34.8548 86.8137 34.7528 86.7117 34.5634L84.4531 31.3868C84.3803 31.2848 84.3074 31.212 84.22 31.1537C84.1326 31.11 84.0014 31.0808 83.8411 31.0808H82.9523V34.8402H81.5972V25.6895H84.2346C84.832 25.6895 85.3274 25.7477 85.7646 25.8643C86.2017 25.9809 86.5514 26.1557 86.8283 26.3743C87.1051 26.5929 87.3091 26.8697 87.4403 27.1757C87.5714 27.4817 87.6443 27.846 87.6443 28.2394C87.6443 28.56 87.6005 28.8514 87.4985 29.1429C87.3965 29.4343 87.2508 29.682 87.076 29.9006C86.8865 30.1191 86.6534 30.3231 86.3911 30.4834C86.1143 30.6437 85.8083 30.7748 85.4731 30.8477C85.648 30.9497 85.7937 31.0954 85.9103 31.2703L88.4894 34.8402L88.4457 34.8548ZM84.1763 30.1191C84.526 30.1191 84.832 30.0754 85.0943 29.988C85.3566 29.9006 85.5751 29.784 85.7646 29.6237C85.9394 29.4634 86.0706 29.2886 86.1726 29.07C86.26 28.8514 86.3037 28.6183 86.3037 28.356C86.3037 27.8314 86.1288 27.438 85.7791 27.1612C85.4294 26.8989 84.9194 26.7532 84.22 26.7532H82.9377V30.1046H84.1763V30.1191Z" fill="white"/>
  <path d="M99.2868 33.7475V34.8549H93.604V25.7041H99.2722V26.8115H94.9591V29.7112H98.4271V30.7749H94.9591V33.762H99.2722L99.2868 33.7475Z" fill="white"/>
  <path d="M104.897 33.762C105.261 33.762 105.596 33.7037 105.873 33.5725C106.164 33.456 106.412 33.2811 106.601 33.048C106.791 32.8148 106.951 32.5671 107.068 32.2465C107.17 31.9405 107.228 31.5908 107.228 31.2265V25.6895H108.583V31.2265C108.583 31.7657 108.496 32.2611 108.335 32.7128C108.161 33.1645 107.927 33.558 107.607 33.8931C107.286 34.2282 106.907 34.4905 106.441 34.6654C105.99 34.8548 105.479 34.9422 104.911 34.9422C104.343 34.9422 103.833 34.8548 103.381 34.6654C102.93 34.4759 102.536 34.2137 102.216 33.8931C101.895 33.5725 101.647 33.1645 101.487 32.7128C101.312 32.2611 101.239 31.7657 101.239 31.2265V25.6895H102.594V31.2265C102.594 31.6054 102.653 31.9405 102.755 32.2465C102.857 32.5525 103.017 32.8294 103.206 33.048C103.41 33.2665 103.644 33.4414 103.935 33.5725C104.226 33.6891 104.547 33.762 104.911 33.762H104.897Z" fill="white"/>
  <path d="M118.127 34.8548H116.918C116.67 34.8548 116.495 34.7528 116.393 34.5634L114.135 31.3868C114.062 31.2848 113.989 31.212 113.902 31.1537C113.814 31.11 113.683 31.0808 113.523 31.0808H112.634V34.8402H111.279V25.6895H113.916C114.514 25.6895 115.009 25.7477 115.446 25.8643C115.883 25.9809 116.233 26.1557 116.51 26.3743C116.787 26.5929 116.991 26.8697 117.122 27.1757C117.253 27.4817 117.326 27.846 117.326 28.2394C117.326 28.56 117.282 28.8514 117.18 29.1429C117.078 29.4343 116.932 29.682 116.758 29.9006C116.568 30.1191 116.335 30.3231 116.073 30.4834C115.796 30.6437 115.49 30.7748 115.155 30.8477C115.33 30.9497 115.475 31.0954 115.592 31.2703L118.171 34.8402L118.127 34.8548ZM113.858 30.1191C114.208 30.1191 114.514 30.0754 114.776 29.988C115.038 29.9006 115.257 29.784 115.446 29.6237C115.621 29.4634 115.752 29.2886 115.854 29.07C115.942 28.8514 115.985 28.6183 115.985 28.356C115.985 27.8314 115.81 27.438 115.461 27.1612C115.111 26.8989 114.601 26.7532 113.902 26.7532H112.619V30.1046H113.858V30.1191Z" fill="white"/>
  <path d="M128.24 30.2789C128.24 30.9637 128.123 31.5903 127.905 32.1586C127.686 32.7269 127.38 33.2223 126.972 33.6303C126.579 34.0383 126.098 34.3588 125.544 34.592C124.991 34.8251 124.364 34.9417 123.694 34.9417C123.023 34.9417 122.397 34.8251 121.843 34.592C121.289 34.3588 120.809 34.0383 120.415 33.6303C120.022 33.2223 119.716 32.7269 119.483 32.1586C119.264 31.5903 119.147 30.9637 119.147 30.2789C119.147 29.594 119.264 28.9675 119.483 28.3992C119.701 27.8309 120.007 27.3355 120.415 26.9129C120.823 26.4903 121.289 26.1698 121.843 25.9366C122.397 25.7035 123.023 25.5869 123.694 25.5869C124.364 25.5869 124.991 25.7035 125.544 25.9366C126.098 26.1698 126.579 26.4903 126.972 26.9129C127.366 27.3209 127.686 27.8163 127.905 28.3992C128.123 28.982 128.24 29.594 128.24 30.2789ZM126.856 30.2789C126.856 29.7397 126.783 29.2443 126.637 28.8072C126.491 28.37 126.273 28.0058 125.996 27.6998C125.719 27.3938 125.384 27.1606 125.005 27.0003C124.612 26.84 124.189 26.7526 123.708 26.7526C123.227 26.7526 122.79 26.84 122.411 27.0003C122.018 27.1606 121.683 27.3938 121.421 27.6998C121.158 28.0058 120.94 28.37 120.779 28.8072C120.634 29.2443 120.561 29.7252 120.561 30.2789C120.561 30.8326 120.634 31.3134 120.779 31.7506C120.925 32.1877 121.144 32.552 121.421 32.8434C121.697 33.1348 122.033 33.3826 122.411 33.5283C122.805 33.6886 123.242 33.7614 123.708 33.7614C124.175 33.7614 124.626 33.6886 125.005 33.5283C125.384 33.368 125.719 33.1348 125.996 32.8434C126.273 32.552 126.477 32.1731 126.637 31.7506C126.783 31.3134 126.856 30.8326 126.856 30.2789Z" fill="white"/>
  <path d="M133.267 25.7041C133.85 25.7041 134.36 25.777 134.797 25.9081C135.234 26.0392 135.584 26.2432 135.875 26.491C136.166 26.7387 136.37 27.0447 136.516 27.3944C136.647 27.7441 136.72 28.1375 136.72 28.5746C136.72 29.0118 136.647 29.3906 136.501 29.7549C136.356 30.1192 136.137 30.4252 135.846 30.6875C135.554 30.9498 135.19 31.1538 134.768 31.2849C134.33 31.4306 133.835 31.5035 133.281 31.5035H131.868V34.8694H130.513V25.7187H133.281L133.267 25.7041ZM133.267 30.4106C133.616 30.4106 133.908 30.3669 134.17 30.2795C134.432 30.1921 134.651 30.0609 134.826 29.9006C135.001 29.7404 135.132 29.5364 135.219 29.3178C135.307 29.0846 135.35 28.8369 135.35 28.5601C135.35 28.0064 135.176 27.5692 134.826 27.2487C134.476 26.9281 133.952 26.7678 133.252 26.7678H131.839V30.4106H133.252H133.267Z" fill="white"/>
  <path d="M144.283 33.7475V34.8549H138.6V25.7041H144.268V26.8115H139.955V29.7112H143.423V30.7749H139.955V33.762H144.268L144.283 33.7475Z" fill="white"/>
</svg>
