<svg width="156" height="32" viewBox="0 0 156 32" fill="none" xmlns="http://www.w3.org/2000/svg">
<path d="M28.9196 20.0547L0.650631 31.9615C0.261981 32.124 -0.126668 31.7318 0.0393912 31.3467L3.83756 22.4325C3.90469 22.2735 4.05662 22.164 4.22974 22.1499L28.9231 20.0582" fill="#18B29B"/>
<path d="M29.429 18.5068L14.1621 0.802032C13.9006 0.498178 14.1126 0.0282654 14.5119 0.0282654C16.3986 0.0211991 20.3452 0.00353318 21.4758 0C21.6666 0 21.8326 0.113062 21.9068 0.286187L29.429 18.5068Z" fill="white"/>
<path d="M28.6568 19.0211L7.95595 14.1983C7.67329 14.1312 7.51783 13.8238 7.6309 13.5588L9.84973 8.31911C9.96279 8.05766 10.2808 7.95519 10.521 8.10359L28.6498 19.0246" fill="white"/>
<path d="M34.86 31.3187L30.2033 20.3164L30.0549 20.4436L24.1898 26.3899C23.9637 26.6196 24.0308 27.0012 24.3205 27.139C26.7478 28.3014 31.9381 30.8135 34.224 31.9194C34.6127 32.1066 35.0261 31.7144 34.86 31.3152V31.3187Z" fill="white"/>
<path d="M52.2212 13.1399H44.6037C44.5047 13.1399 44.4164 13.2 44.3776 13.2918L42.9219 16.8533C42.883 16.9451 42.7947 17.0052 42.6958 17.0052H40.3356C40.1625 17.0052 40.0459 16.8285 40.113 16.666L47.0981 0.148394C47.137 0.060064 47.2253 0 47.3242 0H49.5042C49.5996 0 49.6879 0.060064 49.7268 0.148394L56.7119 16.666C56.779 16.825 56.6624 17.0052 56.4893 17.0052H54.1291C54.0302 17.0052 53.9419 16.9451 53.903 16.8533L52.4473 13.2918C52.4085 13.2 52.3201 13.1399 52.2212 13.1399ZM51.0517 10.7833C51.2249 10.7833 51.3415 10.6066 51.2779 10.4476L49.2286 5.46229C48.8647 4.54013 48.4513 3.25052 48.4266 3.25052H48.4018C48.3771 3.25052 47.9637 4.5366 47.5998 5.46229L45.5506 10.4476C45.4834 10.6066 45.6036 10.7833 45.7767 10.7833H51.0517Z" fill="white"/>
<path d="M77.0469 0.243789V16.7614C77.0469 16.8957 76.9374 17.0052 76.8031 17.0052H74.6408C74.5066 17.0052 74.397 16.8957 74.397 16.7614V10.5183C74.397 7.43381 74.5419 4.51894 74.5172 4.51894H74.4924C74.4677 4.51894 73.4219 6.31732 72.9873 7.09462L69.7544 12.6806C69.712 12.7548 69.6308 12.8007 69.546 12.8007H68.4189C68.3306 12.8007 68.2528 12.7548 68.2069 12.6806L64.9741 7.09462C64.5359 6.31732 63.5184 4.51894 63.4937 4.51894H63.4689C63.4442 4.51894 63.5679 7.43381 63.5679 10.5183V16.7614C63.5679 16.8957 63.4583 17.0052 63.3241 17.0052H61.1618C61.0275 17.0052 60.918 16.8957 60.918 16.7614V0.243789C60.918 0.109529 61.0275 0 61.1618 0H63.3064C63.3912 0 63.4725 0.0459313 63.5149 0.120128L67.306 6.51165C68.7157 8.84355 68.9595 9.42652 68.9807 9.42652H69.0054C69.0301 9.42652 69.2739 8.84355 70.6554 6.51165L74.45 0.120128C74.496 0.0459313 74.5737 0 74.662 0H76.8067C76.9409 0 77.0469 0.109529 77.0469 0.243789Z" fill="white"/>
<path d="M89.1659 0C93.1973 0 95.6246 2.08811 95.6246 5.56122C95.6246 9.03434 93.1973 11.1224 89.1624 11.1224H86.4666C86.3323 11.1224 86.2228 11.232 86.2228 11.3662V16.7579C86.2228 16.8921 86.1133 17.0017 85.979 17.0017H83.7672C83.633 17.0017 83.5234 16.8921 83.5234 16.7579V0.243789C83.5305 0.109529 83.6365 0 83.7708 0H89.1624H89.1659ZM89.1165 8.59976C91.4978 8.59976 92.8334 7.45854 92.8334 5.56476C92.8334 3.67097 91.4236 2.52976 89.1165 2.52976H86.4701C86.3359 2.52976 86.2263 2.63928 86.2263 2.77355V8.3595C86.2263 8.49376 86.3359 8.60329 86.4701 8.60329H89.1165V8.59976Z" fill="white"/>
<path d="M112.97 0.385116L106.741 8.87181C106.709 8.91421 106.695 8.96367 106.695 9.01667V16.7579C106.695 16.8921 106.586 17.0017 106.451 17.0017H104.264C104.13 17.0017 104.021 16.8921 104.021 16.7579V9.01667C104.021 8.96367 104.003 8.91421 103.975 8.87181L97.7457 0.385116C97.6291 0.226123 97.7457 0 97.9435 0H100.378C100.456 0 100.526 0.0353318 100.572 0.098929L104.363 5.22204C104.826 5.82974 105.335 6.53285 105.36 6.53285H105.384C105.409 6.53285 105.918 5.82974 106.356 5.22204L110.144 0.098929C110.19 0.0353318 110.26 0 110.338 0H112.772C112.974 0 113.087 0.226123 112.97 0.385116Z" fill="white"/>
<path d="M126.032 17.0017C125.947 17.0017 125.866 16.9557 125.824 16.8815L122.297 10.9034C122.128 10.9281 121.958 10.9281 121.764 10.9281H119.142C119.008 10.9281 118.899 11.0377 118.899 11.1719V16.7579C118.899 16.8921 118.789 17.0017 118.655 17.0017H116.443C116.309 17.0017 116.199 16.8921 116.199 16.7579V0.243789C116.199 0.109529 116.309 0 116.443 0H121.764C125.845 0 128.297 2.16231 128.297 5.51529C128.297 7.79773 127.159 9.47599 125.163 10.3169C125.025 10.3734 124.969 10.5395 125.046 10.6667L128.703 16.6342C128.802 16.7967 128.685 17.0052 128.495 17.0052H126.032V17.0017ZM122.078 8.55029C124.386 8.55029 125.502 7.19002 125.502 5.51529C125.502 3.84057 124.287 2.52622 122.078 2.52622H119.139C119.005 2.52622 118.895 2.63575 118.895 2.77001V8.3065C118.895 8.44076 119.005 8.55029 119.139 8.55029H122.078Z" fill="white"/>
<path d="M45.1644 24.653C45.1255 24.7202 45.0831 24.7696 45.0408 24.8014C44.9984 24.8332 44.9418 24.8473 44.8747 24.8473C44.804 24.8473 44.7228 24.8156 44.6309 24.7484C44.539 24.6848 44.426 24.6106 44.2882 24.5294C44.1504 24.4481 43.9879 24.3739 43.7971 24.3103C43.6063 24.2467 43.3802 24.2114 43.1152 24.2114C42.8643 24.2114 42.6488 24.2432 42.458 24.3103C42.2707 24.3739 42.1117 24.4658 41.9846 24.5788C41.8574 24.6919 41.762 24.8226 41.6984 24.9781C41.6348 25.13 41.5994 25.2961 41.5994 25.4727C41.5994 25.7024 41.6595 25.8932 41.7761 26.0416C41.8927 26.1935 42.0446 26.3207 42.2354 26.4267C42.4262 26.5327 42.6417 26.6281 42.882 26.7058C43.1222 26.7835 43.3696 26.8683 43.6239 26.9531C43.8783 27.0379 44.1257 27.1368 44.3659 27.2464C44.6062 27.3559 44.8217 27.4972 45.0125 27.6633C45.2033 27.8294 45.3552 28.0378 45.4718 28.2816C45.5884 28.5254 45.6485 28.8222 45.6485 29.1755C45.6485 29.55 45.5849 29.9033 45.4541 30.2319C45.3269 30.5605 45.1397 30.8467 44.8924 31.094C44.6486 31.3378 44.3447 31.5321 43.9879 31.6734C43.631 31.8148 43.2247 31.8854 42.7689 31.8854C42.4969 31.8854 42.2319 31.8572 41.974 31.8042C41.716 31.7512 41.4722 31.677 41.2426 31.5781C41.0129 31.4827 40.7974 31.3661 40.5995 31.2283C40.3982 31.0905 40.2215 30.9385 40.0625 30.769L40.4229 30.1648C40.4582 30.1189 40.5006 30.0765 40.5501 30.0447C40.5995 30.0129 40.6561 29.9987 40.7197 29.9987C40.8045 29.9987 40.8999 30.0411 41.0059 30.1294C41.1154 30.2178 41.2496 30.3132 41.4086 30.4156C41.5676 30.5216 41.762 30.617 41.9846 30.7018C42.2071 30.7902 42.4792 30.8326 42.8007 30.8326C43.0622 30.8326 43.2954 30.7972 43.5003 30.7301C43.7052 30.6594 43.8783 30.5605 44.0197 30.4333C44.161 30.3061 44.267 30.1506 44.3447 29.9669C44.4189 29.7867 44.4578 29.5818 44.4578 29.3628C44.4578 29.1119 44.4012 28.9105 44.2846 28.7515C44.1716 28.5925 44.0161 28.4618 43.8289 28.3523C43.6381 28.2463 43.4226 28.1544 43.1823 28.0802C42.942 28.006 42.6947 27.9283 42.4403 27.847C42.1859 27.7658 41.9386 27.6704 41.6984 27.5644C41.4581 27.4584 41.2426 27.317 41.0518 27.1474C40.861 26.9743 40.7091 26.7588 40.596 26.5009C40.4829 26.243 40.4229 25.9214 40.4229 25.5434C40.4229 25.2395 40.4829 24.9427 40.5995 24.6601C40.7197 24.3739 40.8928 24.123 41.1189 23.904C41.345 23.6849 41.6277 23.5083 41.9598 23.3775C42.2919 23.2433 42.6735 23.1797 43.0975 23.1797C43.5745 23.1797 44.0161 23.2574 44.4189 23.4093C44.8217 23.5613 45.1679 23.7803 45.4647 24.0665L45.1573 24.6672L45.1644 24.653Z" fill="#18B29B"/>
<path d="M55.3292 27.524C55.3292 28.16 55.2267 28.7465 55.0218 29.2765C54.8168 29.81 54.5307 30.2658 54.1597 30.6544C53.7887 31.0395 53.3435 31.3398 52.8241 31.5518C52.3047 31.7638 51.7288 31.8733 51.0964 31.8733C50.464 31.8733 49.8916 31.7674 49.3722 31.5518C48.8528 31.3398 48.4077 31.0395 48.0367 30.6544C47.6657 30.2693 47.3795 29.81 47.1746 29.2765C46.9697 28.743 46.8672 28.16 46.8672 27.524C46.8672 26.888 46.9697 26.3086 47.1746 25.7715C47.3795 25.238 47.6692 24.7787 48.0367 24.3901C48.4077 24.005 48.8528 23.7046 49.3722 23.4891C49.8916 23.2736 50.4675 23.1641 51.0964 23.1641C51.7253 23.1641 52.3047 23.2736 52.8241 23.4891C53.3435 23.7046 53.7887 24.005 54.1597 24.3901C54.5307 24.7752 54.8204 25.2345 55.0218 25.7715C55.2267 26.3051 55.3292 26.888 55.3292 27.524ZM54.036 27.524C54.036 27.0188 53.9653 26.563 53.8276 26.1602C53.6898 25.7574 53.4919 25.4147 53.2375 25.132C52.9831 24.8529 52.6722 24.6339 52.3118 24.4855C51.9514 24.3335 51.5451 24.2594 51.0999 24.2594C50.6548 24.2594 50.2484 24.3335 49.8881 24.4855C49.5277 24.6374 49.2168 24.8529 48.9588 25.132C48.7009 25.4112 48.5031 25.7539 48.3653 26.1602C48.2275 26.563 48.1568 27.0188 48.1568 27.524C48.1568 28.0293 48.2275 28.4921 48.3653 28.8913C48.5031 29.2941 48.7009 29.6333 48.9588 29.916C49.2168 30.1951 49.5241 30.4106 49.8881 30.559C50.2484 30.7074 50.6548 30.7816 51.0999 30.7816C51.5451 30.7816 51.9514 30.7074 52.3118 30.559C52.6722 30.4106 52.9831 30.1951 53.2375 29.916C53.4919 29.6368 53.6898 29.2941 53.8276 28.8913C53.9653 28.4886 54.036 28.0328 54.036 27.524Z" fill="#18B29B"/>
<path d="M61.9535 30.7203V31.7837H57.0742V23.2617H58.3391V30.7203H61.9535Z" fill="#18B29B"/>
<path d="M70.8404 31.7837H69.8688C69.7593 31.7837 69.6674 31.7555 69.5967 31.699C69.5261 31.6424 69.4731 31.5718 69.4413 31.487L68.6887 29.5119H64.933L64.1804 31.487C64.1521 31.5612 64.1027 31.6318 64.0249 31.6919C63.9507 31.7519 63.8589 31.7837 63.7529 31.7837H62.7812L66.1766 23.2617H67.4521L70.8475 31.7837H70.8404ZM68.3425 28.6074L67.0776 25.3004C66.9857 25.0742 66.8939 24.7916 66.8055 24.4453C66.7631 24.6149 66.7172 24.7739 66.6713 24.9188C66.6253 25.0636 66.583 25.1944 66.537 25.311L65.2792 28.6039H68.3425V28.6074Z" fill="#18B29B"/>
<path d="M78.5247 31.7834H77.3976C77.1715 31.7834 77.009 31.695 76.9065 31.5148L74.8007 28.5611C74.7336 28.4622 74.6594 28.3915 74.5817 28.3491C74.5039 28.3067 74.3838 28.2855 74.2248 28.2855H73.4016V31.7798H72.1367V23.2578H74.5923C75.1435 23.2578 75.6169 23.3143 76.0126 23.4274C76.4119 23.5405 76.7369 23.6995 76.9984 23.9079C77.2563 24.1164 77.4506 24.3672 77.5743 24.657C77.6979 24.9502 77.7615 25.2788 77.7615 25.6427C77.7615 25.9395 77.7156 26.2186 77.6237 26.4801C77.5319 26.7415 77.3976 26.9747 77.2245 27.1832C77.0478 27.3916 76.8323 27.5683 76.5815 27.7202C76.3271 27.8721 76.0409 27.9852 75.7194 28.0629C75.8784 28.1583 76.0126 28.2891 76.1292 28.4622L78.5282 31.7798L78.5247 31.7834ZM74.5499 27.3669C74.8749 27.3669 75.1611 27.328 75.4084 27.2468C75.6558 27.169 75.8607 27.056 76.0303 26.9111C76.1963 26.7663 76.32 26.5931 76.4048 26.3953C76.4896 26.1939 76.5285 25.9748 76.5285 25.7346C76.5285 25.2435 76.3659 24.8725 76.0444 24.6252C75.7229 24.3743 75.2388 24.2506 74.5923 24.2506H73.3981V27.3669H74.5499Z" fill="#18B29B"/>
<path d="M90.3026 23.2613V31.7834H89.6631C89.5642 31.7834 89.4829 31.7657 89.4158 31.7304C89.3522 31.695 89.2851 31.6385 89.2179 31.5572L84.4057 25.3318C84.4128 25.4378 84.4199 25.5438 84.4269 25.6462C84.434 25.7487 84.4375 25.8476 84.4375 25.936V31.7798H83.3281V23.2578H83.9818C84.0913 23.2578 84.1761 23.2719 84.2326 23.2967C84.2891 23.3214 84.3492 23.3815 84.4163 23.4733L89.2427 29.7059C89.2321 29.5928 89.2215 29.4797 89.2144 29.3702C89.2073 29.2607 89.2038 29.1582 89.2038 29.0664V23.2613H90.3062H90.3026Z" fill="#18B29B"/>
<path d="M97.8673 30.7556L97.8602 31.7837H92.5781V23.2617H97.8602V24.2899H93.8501V26.9892H97.0794V27.9785H93.8501V30.7556H97.8673Z" fill="#18B29B"/>
<path d="M106.875 27.5224C106.875 28.1583 106.772 28.7378 106.567 29.2607C106.363 29.7836 106.076 30.2323 105.705 30.6033C105.334 30.9778 104.889 31.2675 104.37 31.4725C103.85 31.6774 103.275 31.7798 102.642 31.7798H99.4375V23.2578H102.642C103.275 23.2578 103.85 23.3603 104.37 23.5652C104.889 23.7701 105.334 24.0598 105.705 24.4344C106.076 24.8089 106.366 25.2576 106.567 25.7805C106.772 26.3034 106.875 26.8829 106.875 27.5153V27.5224ZM105.582 27.5224C105.582 27.0171 105.511 26.5613 105.373 26.1621C105.235 25.7593 105.038 25.4201 104.783 25.141C104.529 24.8619 104.218 24.6499 103.858 24.5015C103.497 24.3566 103.091 24.2824 102.646 24.2824H100.709V30.7623H102.646C103.094 30.7623 103.497 30.6881 103.858 30.5432C104.218 30.3984 104.529 30.1828 104.783 29.9037C105.038 29.6246 105.235 29.2854 105.373 28.8862C105.511 28.4869 105.582 28.0311 105.582 27.5224Z" fill="#18B29B"/>
<path d="M113.949 30.7556L113.942 31.7837H108.66V23.2617H113.942V24.2899H109.932V26.9892H113.161V27.9785H109.932V30.7556H113.949Z" fill="#18B29B"/>
<path d="M121.908 31.7834H120.78C120.554 31.7834 120.392 31.695 120.289 31.5148L118.184 28.5611C118.116 28.4622 118.042 28.3915 117.964 28.3491C117.887 28.3067 117.767 28.2855 117.608 28.2855H116.784V31.7798H115.52V23.2578H117.975C118.526 23.2578 119 23.3143 119.395 23.4274C119.795 23.5405 120.12 23.6995 120.381 23.9079C120.639 24.1164 120.833 24.3672 120.957 24.657C121.081 24.9502 121.144 25.2788 121.144 25.6427C121.144 25.9395 121.098 26.2186 121.007 26.4801C120.915 26.7415 120.78 26.9747 120.607 27.1832C120.431 27.3916 120.215 27.5683 119.964 27.7202C119.71 27.8721 119.424 27.9852 119.102 28.0629C119.261 28.1583 119.395 28.2891 119.512 28.4622L121.911 31.7798L121.908 31.7834ZM117.933 27.3669C118.258 27.3669 118.544 27.328 118.791 27.2468C119.039 27.169 119.244 27.056 119.413 26.9111C119.579 26.7663 119.703 26.5931 119.788 26.3953C119.872 26.1939 119.911 25.9748 119.911 25.7346C119.911 25.2435 119.749 24.8725 119.427 24.6252C119.106 24.3743 118.622 24.2506 117.975 24.2506H116.781V27.3669H117.933Z" fill="#18B29B"/>
<path d="M128.098 30.7203V31.7837H123.219V23.2617H124.484V30.7203H128.098Z" fill="#18B29B"/>
<path d="M137.044 31.7837H136.072C135.962 31.7837 135.871 31.7555 135.8 31.699C135.729 31.6424 135.676 31.5718 135.644 31.487L134.892 29.5119H131.136L130.384 31.487C130.355 31.5612 130.306 31.6318 130.228 31.6919C130.154 31.7519 130.062 31.7837 129.956 31.7837H128.984L132.38 23.2617H133.655L137.051 31.7837H137.044ZM134.546 28.6074L133.281 25.3004C133.189 25.0742 133.097 24.7916 133.009 24.4453C132.966 24.6149 132.92 24.7739 132.874 24.9188C132.828 25.0636 132.786 25.1944 132.74 25.311L131.482 28.6039H134.546V28.6074Z" fill="#18B29B"/>
<path d="M145.314 23.2613V31.7834H144.675C144.576 31.7834 144.495 31.7657 144.428 31.7304C144.364 31.695 144.297 31.6385 144.23 31.5572L139.417 25.3318C139.425 25.4378 139.432 25.5438 139.439 25.6462C139.446 25.7487 139.449 25.8476 139.449 25.936V31.7798H138.34V23.2578H138.993C139.103 23.2578 139.188 23.2719 139.244 23.2967C139.301 23.3214 139.361 23.3815 139.428 23.4733L144.254 29.7059C144.244 29.5928 144.233 29.4797 144.226 29.3702C144.219 29.2607 144.216 29.1582 144.216 29.0664V23.2613H145.318H145.314Z" fill="#18B29B"/>
<path d="M155.027 27.5224C155.027 28.1583 154.925 28.7378 154.72 29.2607C154.515 29.7836 154.229 30.2323 153.858 30.6033C153.487 30.9778 153.042 31.2675 152.522 31.4725C152.003 31.6774 151.427 31.7798 150.794 31.7798H147.59V23.2578H150.794C151.427 23.2578 152.003 23.3603 152.522 23.5652C153.042 23.7701 153.487 24.0598 153.858 24.4344C154.229 24.8089 154.518 25.2576 154.72 25.7805C154.925 26.3034 155.027 26.8829 155.027 27.5153V27.5224ZM153.734 27.5224C153.734 27.0171 153.663 26.5613 153.526 26.1621C153.388 25.7593 153.19 25.4201 152.936 25.141C152.681 24.8619 152.37 24.6499 152.01 24.5015C151.649 24.3566 151.243 24.2824 150.798 24.2824H148.862V30.7623H150.798C151.247 30.7623 151.649 30.6881 152.01 30.5432C152.37 30.3984 152.681 30.1828 152.936 29.9037C153.19 29.6246 153.388 29.2854 153.526 28.8862C153.663 28.4869 153.734 28.0311 153.734 27.5224Z" fill="#18B29B"/>
</svg>
