<svg width="32" height="32" viewBox="0 0 32 32" fill="none" xmlns="http://www.w3.org/2000/svg">
<path d="M9.33594 26.6719H22.6693" stroke="#181F49" stroke-width="2" stroke-linecap="round" stroke-linejoin="round"/>
<path d="M13.3359 26.6615C20.6693 23.3281 14.4026 18.1281 17.3359 13.3281" stroke="#181F49" stroke-width="2" stroke-linecap="round" stroke-linejoin="round"/>
<path d="M12.6693 12.5367C14.1359 13.6034 15.0693 15.47 15.7359 17.47C13.0693 18.0034 11.0693 18.0034 9.33594 17.07C7.73594 16.27 6.26927 14.5367 5.33594 11.47C9.06927 10.8034 11.2026 11.47 12.6693 12.5367Z" stroke="#181F49" stroke-width="2" stroke-linecap="round" stroke-linejoin="round"/>
<path d="M18.7997 7.99479C17.7832 9.58354 17.2718 11.443 17.333 13.3281C19.8664 13.1948 21.733 12.5281 23.0664 11.4615C24.3997 10.1281 25.1997 8.39479 25.333 5.32812C21.733 5.46146 19.9997 6.66146 18.7997 7.99479Z" stroke="#181F49" stroke-width="2" stroke-linecap="round" stroke-linejoin="round"/>
</svg>
