<svg width="32" height="32" viewBox="0 0 32 32" fill="none" xmlns="http://www.w3.org/2000/svg">
<path d="M21.3307 28V25.3333C21.3307 23.9188 20.7688 22.5623 19.7686 21.5621C18.7684 20.5619 17.4119 20 15.9974 20H7.9974C6.58291 20 5.22635 20.5619 4.22616 21.5621C3.22597 22.5623 2.66406 23.9188 2.66406 25.3333V28" stroke="#181F49" stroke-width="2" stroke-linecap="round" stroke-linejoin="round"/>
<path d="M11.9974 14.6667C14.9429 14.6667 17.3307 12.2789 17.3307 9.33333C17.3307 6.38781 14.9429 4 11.9974 4C9.05188 4 6.66406 6.38781 6.66406 9.33333C6.66406 12.2789 9.05188 14.6667 11.9974 14.6667Z" stroke="#181F49" stroke-width="2" stroke-linecap="round" stroke-linejoin="round"/>
<path d="M29.3359 27.9985V25.3319C29.3351 24.1502 28.9417 23.0022 28.2178 22.0683C27.4938 21.1344 26.4801 20.4673 25.3359 20.1719" stroke="#181F49" stroke-width="2" stroke-linecap="round" stroke-linejoin="round"/>
<path d="M21.3359 4.17188C22.4832 4.46561 23.5 5.13281 24.2261 6.06829C24.9523 7.00377 25.3464 8.15431 25.3464 9.33854C25.3464 10.5228 24.9523 11.6733 24.2261 12.6088C23.5 13.5443 22.4832 14.2115 21.3359 14.5052" stroke="#181F49" stroke-width="2" stroke-linecap="round" stroke-linejoin="round"/>
</svg>
