<svg width="32" height="32" viewBox="0 0 32 32" fill="none" xmlns="http://www.w3.org/2000/svg">
<path d="M21.3307 28V25.3333C21.3307 23.9188 20.7688 22.5623 19.7686 21.5621C18.7684 20.5619 17.4119 20 15.9974 20H7.9974C6.58291 20 5.22635 20.5619 4.22616 21.5621C3.22597 22.5623 2.66406 23.9188 2.66406 25.3333V28" stroke="#181F49" stroke-width="2" stroke-linecap="round" stroke-linejoin="round"/>
<path d="M11.9974 14.6667C14.9429 14.6667 17.3307 12.2789 17.3307 9.33333C17.3307 6.38781 14.9429 4 11.9974 4C9.05188 4 6.66406 6.38781 6.66406 9.33333C6.66406 12.2789 9.05188 14.6667 11.9974 14.6667Z" stroke="#181F49" stroke-width="2" stroke-linecap="round" stroke-linejoin="round"/>
<path d="M21.3359 14.6667L24.0026 17.3333L29.3359 12" stroke="#181F49" stroke-width="2" stroke-linecap="round" stroke-linejoin="round"/>
</svg>
