<svg width="32" height="32" viewBox="0 0 32 32" fill="none" xmlns="http://www.w3.org/2000/svg">
<path d="M28.72 20H22.6667C21.9594 20 21.2811 20.281 20.781 20.781C20.281 21.2811 20 21.9594 20 22.6667V28.72" stroke="#181F49" stroke-width="2" stroke-linecap="round" stroke-linejoin="round"/>
<path d="M9.33594 4.45312V6.66646C9.33594 7.72732 9.75737 8.74474 10.5075 9.49489C11.2577 10.245 12.2751 10.6665 13.3359 10.6665C14.0432 10.6665 14.7215 10.9474 15.2216 11.4475C15.7217 11.9476 16.0026 12.6259 16.0026 13.3331C16.0026 14.7998 17.2026 15.9998 18.6693 15.9998C19.3765 15.9998 20.0548 15.7188 20.5549 15.2187C21.055 14.7186 21.3359 14.0404 21.3359 13.3331C21.3359 11.8665 22.5359 10.6665 24.0026 10.6665H28.2293" stroke="#181F49" stroke-width="2" stroke-linecap="round" stroke-linejoin="round"/>
<path d="M14.6677 29.2719V24.0052C14.6677 23.298 14.3868 22.6197 13.8867 22.1196C13.3866 21.6195 12.7083 21.3385 12.001 21.3385C11.2938 21.3385 10.6155 21.0576 10.1154 20.5575C9.61533 20.0574 9.33437 19.3791 9.33437 18.6719V17.3385C9.33437 16.6313 9.05342 15.953 8.55333 15.4529C8.05323 14.9528 7.37495 14.6719 6.66771 14.6719H2.73438" stroke="#181F49" stroke-width="2" stroke-linecap="round" stroke-linejoin="round"/>
<path d="M15.9974 29.3385C23.3612 29.3385 29.3307 23.369 29.3307 16.0052C29.3307 8.64141 23.3612 2.67188 15.9974 2.67188C8.6336 2.67188 2.66406 8.64141 2.66406 16.0052C2.66406 23.369 8.6336 29.3385 15.9974 29.3385Z" stroke="#181F49" stroke-width="2" stroke-linecap="round" stroke-linejoin="round"/>
</svg>
